<svg xmlns="http://www.w3.org/2000/svg" version="1.1" xmlns:xlink="http://www.w3.org/1999/xlink" xmlns:svgjs="http://svgjs.com/svgjs" width="1440" height="560" preserveAspectRatio="none" viewBox="0 0 1440 560">
    <g mask="url(&quot;#SvgjsMask1591&quot;)" fill="none">
        <rect width="1440" height="560" x="0" y="0" fill="rgba(0, 0, 0, 1)"></rect>
        <path d="M-81.31 396.75L-81.31 396.75" stroke="rgba(197, 202, 211, 0.22)" stroke-width="1.5"></path>
        <path d="M-81.31 396.75L-44.69 515.39" stroke="rgba(197, 202, 211, 0.22)" stroke-width="1.5"></path>
        <path d="M-81.31 396.75L67.31 398.56" stroke="rgba(197, 202, 211, 0.22)" stroke-width="1.5"></path>
        <path d="M-81.31 396.75L68.3 509.28" stroke="rgba(197, 202, 211, 0.22)" stroke-width="1.5"></path>
        <path d="M-81.31 396.75L193.38 360.45" stroke="rgba(197, 202, 211, 0.22)" stroke-width="1.5"></path>
        <path d="M-81.31 396.75L-60.41 678.13" stroke="rgba(197, 202, 211, 0.22)" stroke-width="1.5"></path>
        <path d="M-81.31 396.75L252.23 551.96" stroke="rgba(197, 202, 211, 0.22)" stroke-width="1.5"></path>
        <path d="M-44.69 515.39L-44.69 515.39" stroke="rgba(197, 202, 211, 0.22)" stroke-width="1.5"></path>
        <path d="M-44.69 515.39L68.3 509.28" stroke="rgba(197, 202, 211, 0.22)" stroke-width="1.5"></path>
        <path d="M-44.69 515.39L67.31 398.56" stroke="rgba(197, 202, 211, 0.22)" stroke-width="1.5"></path>
        <path d="M-60.41 678.13L-60.41 678.13" stroke="rgba(197, 202, 211, 0.22)" stroke-width="1.5"></path>
        <path d="M-60.41 678.13L-44.69 515.39" stroke="rgba(197, 202, 211, 0.22)" stroke-width="1.5"></path>
        <path d="M-60.41 678.13L68.3 509.28" stroke="rgba(197, 202, 211, 0.22)" stroke-width="1.5"></path>
        <path d="M67.31 398.56L67.31 398.56" stroke="rgba(197, 202, 211, 0.22)" stroke-width="1.5"></path>
        <path d="M67.31 398.56L68.3 509.28" stroke="rgba(197, 202, 211, 0.22)" stroke-width="1.5"></path>
        <path d="M67.31 398.56L193.38 360.45" stroke="rgba(197, 202, 211, 0.22)" stroke-width="1.5"></path>
        <path d="M68.3 509.28L68.3 509.28" stroke="rgba(197, 202, 211, 0.22)" stroke-width="1.5"></path>
        <path d="M193.38 360.45L193.38 360.45" stroke="rgba(197, 202, 211, 0.22)" stroke-width="1.5"></path>
        <path d="M193.38 360.45L372.16 345.03" stroke="rgba(197, 202, 211, 0.22)" stroke-width="1.5"></path>
        <path d="M252.23 551.96L252.23 551.96" stroke="rgba(197, 202, 211, 0.22)" stroke-width="1.5"></path>
        <path d="M252.23 551.96L366.93 514.51" stroke="rgba(197, 202, 211, 0.22)" stroke-width="1.5"></path>
        <path d="M252.23 551.96L204.2 699.99" stroke="rgba(197, 202, 211, 0.22)" stroke-width="1.5"></path>
        <path d="M252.23 551.96L342.5 685.78" stroke="rgba(197, 202, 211, 0.22)" stroke-width="1.5"></path>
        <path d="M252.23 551.96L68.3 509.28" stroke="rgba(197, 202, 211, 0.22)" stroke-width="1.5"></path>
        <path d="M204.2 699.99L204.2 699.99" stroke="rgba(197, 202, 211, 0.22)" stroke-width="1.5"></path>
        <path d="M204.2 699.99L342.5 685.78" stroke="rgba(197, 202, 211, 0.22)" stroke-width="1.5"></path>
        <path d="M372.16 345.03L372.16 345.03" stroke="rgba(197, 202, 211, 0.22)" stroke-width="1.5"></path>
        <path d="M372.16 345.03L366.93 514.51" stroke="rgba(197, 202, 211, 0.22)" stroke-width="1.5"></path>
        <path d="M372.16 345.03L534.42 405.92" stroke="rgba(197, 202, 211, 0.22)" stroke-width="1.5"></path>
        <path d="M372.16 345.03L252.23 551.96" stroke="rgba(197, 202, 211, 0.22)" stroke-width="1.5"></path>
        <path d="M372.16 345.03L552.96 540.59" stroke="rgba(197, 202, 211, 0.22)" stroke-width="1.5"></path>
        <path d="M366.93 514.51L366.93 514.51" stroke="rgba(197, 202, 211, 0.22)" stroke-width="1.5"></path>
        <path d="M366.93 514.51L342.5 685.78" stroke="rgba(197, 202, 211, 0.22)" stroke-width="1.5"></path>
        <path d="M342.5 685.78L342.5 685.78" stroke="rgba(197, 202, 211, 0.22)" stroke-width="1.5"></path>
        <path d="M534.42 405.92L534.42 405.92" stroke="rgba(197, 202, 211, 0.22)" stroke-width="1.5"></path>
        <path d="M534.42 405.92L552.96 540.59" stroke="rgba(197, 202, 211, 0.22)" stroke-width="1.5"></path>
        <path d="M534.42 405.92L700.39 357.24" stroke="rgba(197, 202, 211, 0.22)" stroke-width="1.5"></path>
        <path d="M552.96 540.59L552.96 540.59" stroke="rgba(197, 202, 211, 0.22)" stroke-width="1.5"></path>
        <path d="M552.96 540.59L663.14 541.83" stroke="rgba(197, 202, 211, 0.22)" stroke-width="1.5"></path>
        <path d="M552.96 540.59L519.64 663.78" stroke="rgba(197, 202, 211, 0.22)" stroke-width="1.5"></path>
        <path d="M519.64 663.78L519.64 663.78" stroke="rgba(197, 202, 211, 0.22)" stroke-width="1.5"></path>
        <path d="M519.64 663.78L638.04 693.97" stroke="rgba(197, 202, 211, 0.22)" stroke-width="1.5"></path>
        <path d="M519.64 663.78L342.5 685.78" stroke="rgba(197, 202, 211, 0.22)" stroke-width="1.5"></path>
        <path d="M652.67 252.62L652.67 252.62" stroke="rgba(197, 202, 211, 0.22)" stroke-width="1.5"></path>
        <path d="M652.67 252.62L700.39 357.24" stroke="rgba(197, 202, 211, 0.22)" stroke-width="1.5"></path>
        <path d="M652.67 252.62L822.81 259.75" stroke="rgba(197, 202, 211, 0.22)" stroke-width="1.5"></path>
        <path d="M652.67 252.62L534.42 405.92" stroke="rgba(197, 202, 211, 0.22)" stroke-width="1.5"></path>
        <path d="M700.39 357.24L700.39 357.24" stroke="rgba(197, 202, 211, 0.22)" stroke-width="1.5"></path>
        <path d="M700.39 357.24L802.23 380.57" stroke="rgba(197, 202, 211, 0.22)" stroke-width="1.5"></path>
        <path d="M700.39 357.24L822.81 259.75" stroke="rgba(197, 202, 211, 0.22)" stroke-width="1.5"></path>
        <path d="M700.39 357.24L663.14 541.83" stroke="rgba(197, 202, 211, 0.22)" stroke-width="1.5"></path>
        <path d="M700.39 357.24L837.67 546.96" stroke="rgba(197, 202, 211, 0.22)" stroke-width="1.5"></path>
        <path d="M663.14 541.83L663.14 541.83" stroke="rgba(197, 202, 211, 0.22)" stroke-width="1.5"></path>
        <path d="M663.14 541.83L638.04 693.97" stroke="rgba(197, 202, 211, 0.22)" stroke-width="1.5"></path>
        <path d="M663.14 541.83L837.67 546.96" stroke="rgba(197, 202, 211, 0.22)" stroke-width="1.5"></path>
        <path d="M663.14 541.83L534.42 405.92" stroke="rgba(197, 202, 211, 0.22)" stroke-width="1.5"></path>
        <path d="M663.14 541.83L519.64 663.78" stroke="rgba(197, 202, 211, 0.22)" stroke-width="1.5"></path>
        <path d="M638.04 693.97L638.04 693.97" stroke="rgba(197, 202, 211, 0.22)" stroke-width="1.5"></path>
        <path d="M638.04 693.97L552.96 540.59" stroke="rgba(197, 202, 211, 0.22)" stroke-width="1.5"></path>
        <path d="M638.04 693.97L837.67 546.96" stroke="rgba(197, 202, 211, 0.22)" stroke-width="1.5"></path>
        <path d="M822.81 259.75L822.81 259.75" stroke="rgba(197, 202, 211, 0.22)" stroke-width="1.5"></path>
        <path d="M822.81 259.75L802.23 380.57" stroke="rgba(197, 202, 211, 0.22)" stroke-width="1.5"></path>
        <path d="M822.81 259.75L942.34 221.06" stroke="rgba(197, 202, 211, 0.22)" stroke-width="1.5"></path>
        <path d="M802.23 380.57L802.23 380.57" stroke="rgba(197, 202, 211, 0.22)" stroke-width="1.5"></path>
        <path d="M802.23 380.57L837.67 546.96" stroke="rgba(197, 202, 211, 0.22)" stroke-width="1.5"></path>
        <path d="M802.23 380.57L652.67 252.62" stroke="rgba(197, 202, 211, 0.22)" stroke-width="1.5"></path>
        <path d="M802.23 380.57L998.17 399.89" stroke="rgba(197, 202, 211, 0.22)" stroke-width="1.5"></path>
        <path d="M802.23 380.57L965.44 491.43" stroke="rgba(197, 202, 211, 0.22)" stroke-width="1.5"></path>
        <path d="M837.67 546.96L837.67 546.96" stroke="rgba(197, 202, 211, 0.22)" stroke-width="1.5"></path>
        <path d="M837.67 546.96L965.44 491.43" stroke="rgba(197, 202, 211, 0.22)" stroke-width="1.5"></path>
        <path d="M837.67 546.96L962.24 658.52" stroke="rgba(197, 202, 211, 0.22)" stroke-width="1.5"></path>
        <path d="M837.67 546.96L998.17 399.89" stroke="rgba(197, 202, 211, 0.22)" stroke-width="1.5"></path>
        <path d="M950.46 -70.74L950.46 -70.74" stroke="rgba(197, 202, 211, 0.22)" stroke-width="1.5"></path>
        <path d="M950.46 -70.74L1106.98 -101.52" stroke="rgba(197, 202, 211, 0.22)" stroke-width="1.5"></path>
        <path d="M950.46 -70.74L1125.34 41.41" stroke="rgba(197, 202, 211, 0.22)" stroke-width="1.5"></path>
        <path d="M950.46 -70.74L942.34 221.06" stroke="rgba(197, 202, 211, 0.22)" stroke-width="1.5"></path>
        <path d="M942.34 221.06L942.34 221.06" stroke="rgba(197, 202, 211, 0.22)" stroke-width="1.5"></path>
        <path d="M942.34 221.06L998.17 399.89" stroke="rgba(197, 202, 211, 0.22)" stroke-width="1.5"></path>
        <path d="M942.34 221.06L1149.91 260.41" stroke="rgba(197, 202, 211, 0.22)" stroke-width="1.5"></path>
        <path d="M998.17 399.89L998.17 399.89" stroke="rgba(197, 202, 211, 0.22)" stroke-width="1.5"></path>
        <path d="M998.17 399.89L965.44 491.43" stroke="rgba(197, 202, 211, 0.22)" stroke-width="1.5"></path>
        <path d="M998.17 399.89L1122.31 515.69" stroke="rgba(197, 202, 211, 0.22)" stroke-width="1.5"></path>
        <path d="M965.44 491.43L965.44 491.43" stroke="rgba(197, 202, 211, 0.22)" stroke-width="1.5"></path>
        <path d="M965.44 491.43L1122.31 515.69" stroke="rgba(197, 202, 211, 0.22)" stroke-width="1.5"></path>
        <path d="M965.44 491.43L962.24 658.52" stroke="rgba(197, 202, 211, 0.22)" stroke-width="1.5"></path>
        <path d="M962.24 658.52L962.24 658.52" stroke="rgba(197, 202, 211, 0.22)" stroke-width="1.5"></path>
        <path d="M962.24 658.52L1121.54 671.31" stroke="rgba(197, 202, 211, 0.22)" stroke-width="1.5"></path>
        <path d="M1106.98 -101.52L1106.98 -101.52" stroke="rgba(197, 202, 211, 0.22)" stroke-width="1.5"></path>
        <path d="M1106.98 -101.52L1125.34 41.41" stroke="rgba(197, 202, 211, 0.22)" stroke-width="1.5"></path>
        <path d="M1106.98 -101.52L1282.68 -42.69" stroke="rgba(197, 202, 211, 0.22)" stroke-width="1.5"></path>
        <path d="M1125.34 41.41L1125.34 41.41" stroke="rgba(197, 202, 211, 0.22)" stroke-width="1.5"></path>
        <path d="M1125.34 41.41L1255.03 82" stroke="rgba(197, 202, 211, 0.22)" stroke-width="1.5"></path>
        <path d="M1149.91 260.41L1149.91 260.41" stroke="rgba(197, 202, 211, 0.22)" stroke-width="1.5"></path>
        <path d="M1149.91 260.41L1293.12 208.2" stroke="rgba(197, 202, 211, 0.22)" stroke-width="1.5"></path>
        <path d="M1149.91 260.41L1250.21 408.83" stroke="rgba(197, 202, 211, 0.22)" stroke-width="1.5"></path>
        <path d="M1149.91 260.41L998.17 399.89" stroke="rgba(197, 202, 211, 0.22)" stroke-width="1.5"></path>
        <path d="M1149.91 260.41L1255.03 82" stroke="rgba(197, 202, 211, 0.22)" stroke-width="1.5"></path>
        <path d="M1149.91 260.41L1125.34 41.41" stroke="rgba(197, 202, 211, 0.22)" stroke-width="1.5"></path>
        <path d="M1122.31 515.69L1122.31 515.69" stroke="rgba(197, 202, 211, 0.22)" stroke-width="1.5"></path>
        <path d="M1122.31 515.69L1256.46 499" stroke="rgba(197, 202, 211, 0.22)" stroke-width="1.5"></path>
        <path d="M1122.31 515.69L1121.54 671.31" stroke="rgba(197, 202, 211, 0.22)" stroke-width="1.5"></path>
        <path d="M1122.31 515.69L1250.21 408.83" stroke="rgba(197, 202, 211, 0.22)" stroke-width="1.5"></path>
        <path d="M1121.54 671.31L1121.54 671.31" stroke="rgba(197, 202, 211, 0.22)" stroke-width="1.5"></path>
        <path d="M1121.54 671.31L1253.89 645.72" stroke="rgba(197, 202, 211, 0.22)" stroke-width="1.5"></path>
        <path d="M1121.54 671.31L1256.46 499" stroke="rgba(197, 202, 211, 0.22)" stroke-width="1.5"></path>
        <path d="M1282.68 -42.69L1282.68 -42.69" stroke="rgba(197, 202, 211, 0.22)" stroke-width="1.5"></path>
        <path d="M1282.68 -42.69L1255.03 82" stroke="rgba(197, 202, 211, 0.22)" stroke-width="1.5"></path>
        <path d="M1282.68 -42.69L1452.26 -59.18" stroke="rgba(197, 202, 211, 0.22)" stroke-width="1.5"></path>
        <path d="M1282.68 -42.69L1125.34 41.41" stroke="rgba(197, 202, 211, 0.22)" stroke-width="1.5"></path>
        <path d="M1255.03 82L1255.03 82" stroke="rgba(197, 202, 211, 0.22)" stroke-width="1.5"></path>
        <path d="M1255.03 82L1293.12 208.2" stroke="rgba(197, 202, 211, 0.22)" stroke-width="1.5"></path>
        <path d="M1293.12 208.2L1293.12 208.2" stroke="rgba(197, 202, 211, 0.22)" stroke-width="1.5"></path>
        <path d="M1293.12 208.2L1390.21 248.64" stroke="rgba(197, 202, 211, 0.22)" stroke-width="1.5"></path>
        <path d="M1293.12 208.2L1250.21 408.83" stroke="rgba(197, 202, 211, 0.22)" stroke-width="1.5"></path>
        <path d="M1293.12 208.2L1392.53 396.71" stroke="rgba(197, 202, 211, 0.22)" stroke-width="1.5"></path>
        <path d="M1293.12 208.2L1125.34 41.41" stroke="rgba(197, 202, 211, 0.22)" stroke-width="1.5"></path>
        <path d="M1250.21 408.83L1250.21 408.83" stroke="rgba(197, 202, 211, 0.22)" stroke-width="1.5"></path>
        <path d="M1250.21 408.83L1256.46 499" stroke="rgba(197, 202, 211, 0.22)" stroke-width="1.5"></path>
        <path d="M1250.21 408.83L1392.53 396.71" stroke="rgba(197, 202, 211, 0.22)" stroke-width="1.5"></path>
        <path d="M1250.21 408.83L1403.62 534.1" stroke="rgba(197, 202, 211, 0.22)" stroke-width="1.5"></path>
        <path d="M1256.46 499L1256.46 499" stroke="rgba(197, 202, 211, 0.22)" stroke-width="1.5"></path>
        <path d="M1256.46 499L1253.89 645.72" stroke="rgba(197, 202, 211, 0.22)" stroke-width="1.5"></path>
        <path d="M1256.46 499L1403.62 534.1" stroke="rgba(197, 202, 211, 0.22)" stroke-width="1.5"></path>
        <path d="M1253.89 645.72L1253.89 645.72" stroke="rgba(197, 202, 211, 0.22)" stroke-width="1.5"></path>
        <path d="M1452.26 -59.18L1452.26 -59.18" stroke="rgba(197, 202, 211, 0.22)" stroke-width="1.5"></path>
        <path d="M1452.26 -59.18L1597.11 -51.55" stroke="rgba(197, 202, 211, 0.22)" stroke-width="1.5"></path>
        <path d="M1452.26 -59.18L1600.51 37.71" stroke="rgba(197, 202, 211, 0.22)" stroke-width="1.5"></path>
        <path d="M1452.26 -59.18L1255.03 82" stroke="rgba(197, 202, 211, 0.22)" stroke-width="1.5"></path>
        <path d="M1452.26 -59.18L1293.12 208.2" stroke="rgba(197, 202, 211, 0.22)" stroke-width="1.5"></path>
        <path d="M1390.21 248.64L1390.21 248.64" stroke="rgba(197, 202, 211, 0.22)" stroke-width="1.5"></path>
        <path d="M1390.21 248.64L1392.53 396.71" stroke="rgba(197, 202, 211, 0.22)" stroke-width="1.5"></path>
        <path d="M1390.21 248.64L1550.85 255.8" stroke="rgba(197, 202, 211, 0.22)" stroke-width="1.5"></path>
        <path d="M1390.21 248.64L1556.36 365.47" stroke="rgba(197, 202, 211, 0.22)" stroke-width="1.5"></path>
        <path d="M1390.21 248.64L1250.21 408.83" stroke="rgba(197, 202, 211, 0.22)" stroke-width="1.5"></path>
        <path d="M1392.53 396.71L1392.53 396.71" stroke="rgba(197, 202, 211, 0.22)" stroke-width="1.5"></path>
        <path d="M1392.53 396.71L1403.62 534.1" stroke="rgba(197, 202, 211, 0.22)" stroke-width="1.5"></path>
        <path d="M1392.53 396.71L1556.36 365.47" stroke="rgba(197, 202, 211, 0.22)" stroke-width="1.5"></path>
        <path d="M1392.53 396.71L1256.46 499" stroke="rgba(197, 202, 211, 0.22)" stroke-width="1.5"></path>
        <path d="M1392.53 396.71L1550.85 255.8" stroke="rgba(197, 202, 211, 0.22)" stroke-width="1.5"></path>
        <path d="M1403.62 534.1L1403.62 534.1" stroke="rgba(197, 202, 211, 0.22)" stroke-width="1.5"></path>
        <path d="M1403.62 534.1L1410.41 689.42" stroke="rgba(197, 202, 211, 0.22)" stroke-width="1.5"></path>
        <path d="M1410.41 689.42L1410.41 689.42" stroke="rgba(197, 202, 211, 0.22)" stroke-width="1.5"></path>
        <path d="M1410.41 689.42L1253.89 645.72" stroke="rgba(197, 202, 211, 0.22)" stroke-width="1.5"></path>
        <path d="M1597.11 -51.55L1597.11 -51.55" stroke="rgba(197, 202, 211, 0.22)" stroke-width="1.5"></path>
        <path d="M1597.11 -51.55L1600.51 37.71" stroke="rgba(197, 202, 211, 0.22)" stroke-width="1.5"></path>
        <path d="M1597.11 -51.55L1550.85 255.8" stroke="rgba(197, 202, 211, 0.22)" stroke-width="1.5"></path>
        <path d="M1597.11 -51.55L1282.68 -42.69" stroke="rgba(197, 202, 211, 0.22)" stroke-width="1.5"></path>
        <path d="M1600.51 37.71L1600.51 37.71" stroke="rgba(197, 202, 211, 0.22)" stroke-width="1.5"></path>
        <path d="M1600.51 37.71L1550.85 255.8" stroke="rgba(197, 202, 211, 0.22)" stroke-width="1.5"></path>
        <path d="M1550.85 255.8L1550.85 255.8" stroke="rgba(197, 202, 211, 0.22)" stroke-width="1.5"></path>
        <path d="M1550.85 255.8L1556.36 365.47" stroke="rgba(197, 202, 211, 0.22)" stroke-width="1.5"></path>
        <path d="M1556.36 365.47L1556.36 365.47" stroke="rgba(197, 202, 211, 0.22)" stroke-width="1.5"></path>
        <path d="M1556.36 365.47L1601.81 517.63" stroke="rgba(197, 202, 211, 0.22)" stroke-width="1.5"></path>
        <path d="M1601.81 517.63L1601.81 517.63" stroke="rgba(197, 202, 211, 0.22)" stroke-width="1.5"></path>
        <path d="M1601.81 517.63L1593.12 697.9" stroke="rgba(197, 202, 211, 0.22)" stroke-width="1.5"></path>
        <path d="M1601.81 517.63L1403.62 534.1" stroke="rgba(197, 202, 211, 0.22)" stroke-width="1.5"></path>
        <path d="M1601.81 517.63L1392.53 396.71" stroke="rgba(197, 202, 211, 0.22)" stroke-width="1.5"></path>
        <path d="M1601.81 517.63L1410.41 689.42" stroke="rgba(197, 202, 211, 0.22)" stroke-width="1.5"></path>
        <path d="M1593.12 697.9L1593.12 697.9" stroke="rgba(197, 202, 211, 0.22)" stroke-width="1.5"></path>
        <path d="M1593.12 697.9L1410.41 689.42" stroke="rgba(197, 202, 211, 0.22)" stroke-width="1.5"></path>
        <circle r="5" cx="-81.31" cy="396.75" fill="rgba(197, 202, 211, 0.22)"></circle>
        <circle r="5" cx="-44.69" cy="515.39" fill="rgba(197, 202, 211, 0.22)"></circle>
        <circle r="5" cx="-60.41" cy="678.13" fill="rgba(197, 202, 211, 0.22)"></circle>
        <circle r="5" cx="67.31" cy="398.56" fill="rgba(197, 202, 211, 0.22)"></circle>
        <circle r="5" cx="68.3" cy="509.28" fill="rgba(197, 202, 211, 0.22)"></circle>
        <circle r="5" cx="193.38" cy="360.45" fill="rgba(197, 202, 211, 0.22)"></circle>
        <circle r="5" cx="252.23" cy="551.96" fill="rgba(197, 202, 211, 0.22)"></circle>
        <circle r="5" cx="204.2" cy="699.99" fill="rgba(197, 202, 211, 0.22)"></circle>
        <circle r="5" cx="372.16" cy="345.03" fill="rgba(197, 202, 211, 0.22)"></circle>
        <circle r="5" cx="366.93" cy="514.51" fill="rgba(197, 202, 211, 0.22)"></circle>
        <circle r="5" cx="342.5" cy="685.78" fill="rgba(197, 202, 211, 0.22)"></circle>
        <circle r="5" cx="534.42" cy="405.92" fill="rgba(197, 202, 211, 0.22)"></circle>
        <circle r="5" cx="552.96" cy="540.59" fill="rgba(197, 202, 211, 0.22)"></circle>
        <circle r="5" cx="519.64" cy="663.78" fill="rgba(197, 202, 211, 0.22)"></circle>
        <circle r="5" cx="652.67" cy="252.62" fill="rgba(197, 202, 211, 0.22)"></circle>
        <circle r="5" cx="700.39" cy="357.24" fill="rgba(197, 202, 211, 0.22)"></circle>
        <circle r="5" cx="663.14" cy="541.83" fill="rgba(197, 202, 211, 0.22)"></circle>
        <circle r="5" cx="638.04" cy="693.97" fill="rgba(197, 202, 211, 0.22)"></circle>
        <circle r="5" cx="822.81" cy="259.75" fill="rgba(197, 202, 211, 0.22)"></circle>
        <circle r="5" cx="802.23" cy="380.57" fill="rgba(197, 202, 211, 0.22)"></circle>
        <circle r="5" cx="837.67" cy="546.96" fill="rgba(197, 202, 211, 0.22)"></circle>
        <circle r="5" cx="950.46" cy="-70.74" fill="rgba(197, 202, 211, 0.22)"></circle>
        <circle r="5" cx="942.34" cy="221.06" fill="rgba(197, 202, 211, 0.22)"></circle>
        <circle r="5" cx="998.17" cy="399.89" fill="rgba(197, 202, 211, 0.22)"></circle>
        <circle r="5" cx="965.44" cy="491.43" fill="rgba(197, 202, 211, 0.22)"></circle>
        <circle r="5" cx="962.24" cy="658.52" fill="rgba(197, 202, 211, 0.22)"></circle>
        <circle r="5" cx="1106.98" cy="-101.52" fill="rgba(197, 202, 211, 0.22)"></circle>
        <circle r="5" cx="1125.34" cy="41.41" fill="rgba(197, 202, 211, 0.22)"></circle>
        <circle r="5" cx="1149.91" cy="260.41" fill="rgba(197, 202, 211, 0.22)"></circle>
        <circle r="5" cx="1122.31" cy="515.69" fill="rgba(197, 202, 211, 0.22)"></circle>
        <circle r="5" cx="1121.54" cy="671.31" fill="rgba(197, 202, 211, 0.22)"></circle>
        <circle r="5" cx="1282.68" cy="-42.69" fill="rgba(197, 202, 211, 0.22)"></circle>
        <circle r="5" cx="1255.03" cy="82" fill="rgba(197, 202, 211, 0.22)"></circle>
        <circle r="5" cx="1293.12" cy="208.2" fill="rgba(197, 202, 211, 0.22)"></circle>
        <circle r="5" cx="1250.21" cy="408.83" fill="rgba(197, 202, 211, 0.22)"></circle>
        <circle r="5" cx="1256.46" cy="499" fill="rgba(197, 202, 211, 0.22)"></circle>
        <circle r="5" cx="1253.89" cy="645.72" fill="rgba(197, 202, 211, 0.22)"></circle>
        <circle r="5" cx="1452.26" cy="-59.18" fill="rgba(197, 202, 211, 0.22)"></circle>
        <circle r="5" cx="1390.21" cy="248.64" fill="rgba(197, 202, 211, 0.22)"></circle>
        <circle r="5" cx="1392.53" cy="396.71" fill="rgba(197, 202, 211, 0.22)"></circle>
        <circle r="5" cx="1403.62" cy="534.1" fill="rgba(197, 202, 211, 0.22)"></circle>
        <circle r="5" cx="1410.41" cy="689.42" fill="rgba(197, 202, 211, 0.22)"></circle>
        <circle r="5" cx="1597.11" cy="-51.55" fill="rgba(197, 202, 211, 0.22)"></circle>
        <circle r="5" cx="1600.51" cy="37.71" fill="rgba(197, 202, 211, 0.22)"></circle>
        <circle r="5" cx="1550.85" cy="255.8" fill="rgba(197, 202, 211, 0.22)"></circle>
        <circle r="5" cx="1556.36" cy="365.47" fill="rgba(197, 202, 211, 0.22)"></circle>
        <circle r="5" cx="1601.81" cy="517.63" fill="rgba(197, 202, 211, 0.22)"></circle>
        <circle r="5" cx="1593.12" cy="697.9" fill="rgba(197, 202, 211, 0.22)"></circle>
        <path d="M112.31 532.51L112.31 532.51" stroke="hsla(0, 0%, 100%, 0.14)" stroke-width="1.5"></path>
        <path d="M112.31 532.51L249.83 551.3" stroke="hsla(0, 0%, 100%, 0.14)" stroke-width="1.5"></path>
        <path d="M112.31 532.51L225.56 668.88" stroke="hsla(0, 0%, 100%, 0.14)" stroke-width="1.5"></path>
        <path d="M112.31 532.51L40.16 696.13" stroke="hsla(0, 0%, 100%, 0.14)" stroke-width="1.5"></path>
        <path d="M1145.18 491.12L1145.18 491.12" stroke="hsla(0, 0%, 100%, 0.14)" stroke-width="1.5"></path>
        <path d="M1145.18 491.12L1140.6 405.71" stroke="hsla(0, 0%, 100%, 0.14)" stroke-width="1.5"></path>
        <path d="M1145.18 491.12L1248.92 550" stroke="hsla(0, 0%, 100%, 0.14)" stroke-width="1.5"></path>
        <path d="M1145.18 491.12L1156.03 637.6" stroke="hsla(0, 0%, 100%, 0.14)" stroke-width="1.5"></path>
        <path d="M1145.18 491.12L1004.87 558.97" stroke="hsla(0, 0%, 100%, 0.14)" stroke-width="1.5"></path>
        <path d="M1145.18 491.12L1265.31 367.47" stroke="hsla(0, 0%, 100%, 0.14)" stroke-width="1.5"></path>
        <path d="M1145.18 491.12L992.21 362.84" stroke="hsla(0, 0%, 100%, 0.14)" stroke-width="1.5"></path>
        <path d="M1156.03 637.6L1156.03 637.6" stroke="hsla(0, 0%, 100%, 0.14)" stroke-width="1.5"></path>
        <path d="M1156.03 637.6L1267.13 682.85" stroke="hsla(0, 0%, 100%, 0.14)" stroke-width="1.5"></path>
        <path d="M1156.03 637.6L1248.92 550" stroke="hsla(0, 0%, 100%, 0.14)" stroke-width="1.5"></path>
        <path d="M1156.03 637.6L1004.87 558.97" stroke="hsla(0, 0%, 100%, 0.14)" stroke-width="1.5"></path>
        <path d="M1409.17 189.72L1409.17 189.72" stroke="hsla(0, 0%, 100%, 0.14)" stroke-width="1.5"></path>
        <path d="M1409.17 189.72L1306.7 260.62" stroke="hsla(0, 0%, 100%, 0.14)" stroke-width="1.5"></path>
        <path d="M1409.17 189.72L1440.65 60.33" stroke="hsla(0, 0%, 100%, 0.14)" stroke-width="1.5"></path>
        <path d="M1390.69 349.33L1390.69 349.33" stroke="hsla(0, 0%, 100%, 0.14)" stroke-width="1.5"></path>
        <path d="M1390.69 349.33L1306.7 260.62" stroke="hsla(0, 0%, 100%, 0.14)" stroke-width="1.5"></path>
        <path d="M1390.69 349.33L1265.31 367.47" stroke="hsla(0, 0%, 100%, 0.14)" stroke-width="1.5"></path>
        <path d="M1390.69 349.33L1409.17 189.72" stroke="hsla(0, 0%, 100%, 0.14)" stroke-width="1.5"></path>
        <path d="M1406.36 514.34L1406.36 514.34" stroke="hsla(0, 0%, 100%, 0.14)" stroke-width="1.5"></path>
        <path d="M1406.36 514.34L1416.09 664.89" stroke="hsla(0, 0%, 100%, 0.14)" stroke-width="1.5"></path>
        <path d="M1406.36 514.34L1562.46 501.53" stroke="hsla(0, 0%, 100%, 0.14)" stroke-width="1.5"></path>
        <path d="M1406.36 514.34L1248.92 550" stroke="hsla(0, 0%, 100%, 0.14)" stroke-width="1.5"></path>
        <path d="M1406.36 514.34L1390.69 349.33" stroke="hsla(0, 0%, 100%, 0.14)" stroke-width="1.5"></path>
        <path d="M1406.36 514.34L1265.31 367.47" stroke="hsla(0, 0%, 100%, 0.14)" stroke-width="1.5"></path>
        <path d="M1560.54 662.19L1560.54 662.19" stroke="hsla(0, 0%, 100%, 0.14)" stroke-width="1.5"></path>
        <path d="M1560.54 662.19L1416.09 664.89" stroke="hsla(0, 0%, 100%, 0.14)" stroke-width="1.5"></path>
        <path d="M1560.54 662.19L1562.46 501.53" stroke="hsla(0, 0%, 100%, 0.14)" stroke-width="1.5"></path>
        <path d="M1560.54 662.19L1406.36 514.34" stroke="hsla(0, 0%, 100%, 0.14)" stroke-width="1.5"></path>
        <path d="M1560.54 662.19L1267.13 682.85" stroke="hsla(0, 0%, 100%, 0.14)" stroke-width="1.5"></path>
        <path d="M1560.54 662.19L1607.82 348.52" stroke="hsla(0, 0%, 100%, 0.14)" stroke-width="1.5"></path>
        <path d="M-90.35 524.72L-90.35 524.72" stroke="hsla(0, 0%, 100%, 0.14)" stroke-width="1.5"></path>
        <path d="M-90.35 524.72L-51.63 657.5" stroke="hsla(0, 0%, 100%, 0.14)" stroke-width="1.5"></path>
        <path d="M-90.35 524.72L112.31 532.51" stroke="hsla(0, 0%, 100%, 0.14)" stroke-width="1.5"></path>
        <path d="M-51.63 657.5L-51.63 657.5" stroke="hsla(0, 0%, 100%, 0.14)" stroke-width="1.5"></path>
        <path d="M-51.63 657.5L40.16 696.13" stroke="hsla(0, 0%, 100%, 0.14)" stroke-width="1.5"></path>
        <path d="M-51.63 657.5L112.31 532.51" stroke="hsla(0, 0%, 100%, 0.14)" stroke-width="1.5"></path>
        <path d="M40.16 696.13L40.16 696.13" stroke="hsla(0, 0%, 100%, 0.14)" stroke-width="1.5"></path>
        <path d="M249.83 551.3L249.83 551.3" stroke="hsla(0, 0%, 100%, 0.14)" stroke-width="1.5"></path>
        <path d="M249.83 551.3L225.56 668.88" stroke="hsla(0, 0%, 100%, 0.14)" stroke-width="1.5"></path>
        <path d="M249.83 551.3L374.77 550.25" stroke="hsla(0, 0%, 100%, 0.14)" stroke-width="1.5"></path>
        <path d="M225.56 668.88L225.56 668.88" stroke="hsla(0, 0%, 100%, 0.14)" stroke-width="1.5"></path>
        <path d="M225.56 668.88L358.12 654.03" stroke="hsla(0, 0%, 100%, 0.14)" stroke-width="1.5"></path>
        <path d="M225.56 668.88L40.16 696.13" stroke="hsla(0, 0%, 100%, 0.14)" stroke-width="1.5"></path>
        <path d="M225.56 668.88L374.77 550.25" stroke="hsla(0, 0%, 100%, 0.14)" stroke-width="1.5"></path>
        <path d="M225.56 668.88L-51.63 657.5" stroke="hsla(0, 0%, 100%, 0.14)" stroke-width="1.5"></path>
        <path d="M374.77 550.25L374.77 550.25" stroke="hsla(0, 0%, 100%, 0.14)" stroke-width="1.5"></path>
        <path d="M374.77 550.25L358.12 654.03" stroke="hsla(0, 0%, 100%, 0.14)" stroke-width="1.5"></path>
        <path d="M374.77 550.25L533.27 510.72" stroke="hsla(0, 0%, 100%, 0.14)" stroke-width="1.5"></path>
        <path d="M358.12 654.03L358.12 654.03" stroke="hsla(0, 0%, 100%, 0.14)" stroke-width="1.5"></path>
        <path d="M533.27 510.72L533.27 510.72" stroke="hsla(0, 0%, 100%, 0.14)" stroke-width="1.5"></path>
        <path d="M533.27 510.72L708.82 523.87" stroke="hsla(0, 0%, 100%, 0.14)" stroke-width="1.5"></path>
        <path d="M533.27 510.72L560.45 702.84" stroke="hsla(0, 0%, 100%, 0.14)" stroke-width="1.5"></path>
        <path d="M533.27 510.72L684.31 363.91" stroke="hsla(0, 0%, 100%, 0.14)" stroke-width="1.5"></path>
        <path d="M533.27 510.72L358.12 654.03" stroke="hsla(0, 0%, 100%, 0.14)" stroke-width="1.5"></path>
        <path d="M560.45 702.84L560.45 702.84" stroke="hsla(0, 0%, 100%, 0.14)" stroke-width="1.5"></path>
        <path d="M560.45 702.84L358.12 654.03" stroke="hsla(0, 0%, 100%, 0.14)" stroke-width="1.5"></path>
        <path d="M560.45 702.84L708.82 523.87" stroke="hsla(0, 0%, 100%, 0.14)" stroke-width="1.5"></path>
        <path d="M560.45 702.84L374.77 550.25" stroke="hsla(0, 0%, 100%, 0.14)" stroke-width="1.5"></path>
        <path d="M560.45 702.84L820.71 683" stroke="hsla(0, 0%, 100%, 0.14)" stroke-width="1.5"></path>
        <path d="M560.45 702.84L791.39 530.06" stroke="hsla(0, 0%, 100%, 0.14)" stroke-width="1.5"></path>
        <path d="M684.31 363.91L684.31 363.91" stroke="hsla(0, 0%, 100%, 0.14)" stroke-width="1.5"></path>
        <path d="M684.31 363.91L800.38 357.4" stroke="hsla(0, 0%, 100%, 0.14)" stroke-width="1.5"></path>
        <path d="M684.31 363.91L708.82 523.87" stroke="hsla(0, 0%, 100%, 0.14)" stroke-width="1.5"></path>
        <path d="M684.31 363.91L791.39 530.06" stroke="hsla(0, 0%, 100%, 0.14)" stroke-width="1.5"></path>
        <path d="M684.31 363.91L992.21 362.84" stroke="hsla(0, 0%, 100%, 0.14)" stroke-width="1.5"></path>
        <path d="M708.82 523.87L708.82 523.87" stroke="hsla(0, 0%, 100%, 0.14)" stroke-width="1.5"></path>
        <path d="M708.82 523.87L791.39 530.06" stroke="hsla(0, 0%, 100%, 0.14)" stroke-width="1.5"></path>
        <path d="M800.38 357.4L800.38 357.4" stroke="hsla(0, 0%, 100%, 0.14)" stroke-width="1.5"></path>
        <path d="M800.38 357.4L791.39 530.06" stroke="hsla(0, 0%, 100%, 0.14)" stroke-width="1.5"></path>
        <path d="M791.39 530.06L791.39 530.06" stroke="hsla(0, 0%, 100%, 0.14)" stroke-width="1.5"></path>
        <path d="M791.39 530.06L820.71 683" stroke="hsla(0, 0%, 100%, 0.14)" stroke-width="1.5"></path>
        <path d="M820.71 683L820.71 683" stroke="hsla(0, 0%, 100%, 0.14)" stroke-width="1.5"></path>
        <path d="M820.71 683L953.31 664.07" stroke="hsla(0, 0%, 100%, 0.14)" stroke-width="1.5"></path>
        <path d="M820.71 683L708.82 523.87" stroke="hsla(0, 0%, 100%, 0.14)" stroke-width="1.5"></path>
        <path d="M992.21 362.84L992.21 362.84" stroke="hsla(0, 0%, 100%, 0.14)" stroke-width="1.5"></path>
        <path d="M992.21 362.84L1140.6 405.71" stroke="hsla(0, 0%, 100%, 0.14)" stroke-width="1.5"></path>
        <path d="M992.21 362.84L1104.93 250.39" stroke="hsla(0, 0%, 100%, 0.14)" stroke-width="1.5"></path>
        <path d="M992.21 362.84L800.38 357.4" stroke="hsla(0, 0%, 100%, 0.14)" stroke-width="1.5"></path>
        <path d="M992.21 362.84L1004.87 558.97" stroke="hsla(0, 0%, 100%, 0.14)" stroke-width="1.5"></path>
        <path d="M1004.87 558.97L1004.87 558.97" stroke="hsla(0, 0%, 100%, 0.14)" stroke-width="1.5"></path>
        <path d="M1004.87 558.97L953.31 664.07" stroke="hsla(0, 0%, 100%, 0.14)" stroke-width="1.5"></path>
        <path d="M1004.87 558.97L1140.6 405.71" stroke="hsla(0, 0%, 100%, 0.14)" stroke-width="1.5"></path>
        <path d="M1004.87 558.97L791.39 530.06" stroke="hsla(0, 0%, 100%, 0.14)" stroke-width="1.5"></path>
        <path d="M953.31 664.07L953.31 664.07" stroke="hsla(0, 0%, 100%, 0.14)" stroke-width="1.5"></path>
        <path d="M953.31 664.07L1156.03 637.6" stroke="hsla(0, 0%, 100%, 0.14)" stroke-width="1.5"></path>
        <path d="M953.31 664.07L791.39 530.06" stroke="hsla(0, 0%, 100%, 0.14)" stroke-width="1.5"></path>
        <path d="M953.31 664.07L1145.18 491.12" stroke="hsla(0, 0%, 100%, 0.14)" stroke-width="1.5"></path>
        <path d="M953.31 664.07L708.82 523.87" stroke="hsla(0, 0%, 100%, 0.14)" stroke-width="1.5"></path>
        <path d="M1127.02 102.48L1127.02 102.48" stroke="hsla(0, 0%, 100%, 0.14)" stroke-width="1.5"></path>
        <path d="M1127.02 102.48L1104.93 250.39" stroke="hsla(0, 0%, 100%, 0.14)" stroke-width="1.5"></path>
        <path d="M1127.02 102.48L1283.89 52.18" stroke="hsla(0, 0%, 100%, 0.14)" stroke-width="1.5"></path>
        <path d="M1104.93 250.39L1104.93 250.39" stroke="hsla(0, 0%, 100%, 0.14)" stroke-width="1.5"></path>
        <path d="M1104.93 250.39L1140.6 405.71" stroke="hsla(0, 0%, 100%, 0.14)" stroke-width="1.5"></path>
        <path d="M1104.93 250.39L1265.31 367.47" stroke="hsla(0, 0%, 100%, 0.14)" stroke-width="1.5"></path>
        <path d="M1104.93 250.39L1306.7 260.62" stroke="hsla(0, 0%, 100%, 0.14)" stroke-width="1.5"></path>
        <path d="M1104.93 250.39L1145.18 491.12" stroke="hsla(0, 0%, 100%, 0.14)" stroke-width="1.5"></path>
        <path d="M1140.6 405.71L1140.6 405.71" stroke="hsla(0, 0%, 100%, 0.14)" stroke-width="1.5"></path>
        <path d="M1140.6 405.71L1265.31 367.47" stroke="hsla(0, 0%, 100%, 0.14)" stroke-width="1.5"></path>
        <path d="M1285.16 -80.98L1285.16 -80.98" stroke="hsla(0, 0%, 100%, 0.14)" stroke-width="1.5"></path>
        <path d="M1285.16 -80.98L1283.89 52.18" stroke="hsla(0, 0%, 100%, 0.14)" stroke-width="1.5"></path>
        <path d="M1285.16 -80.98L1442.98 -70.44" stroke="hsla(0, 0%, 100%, 0.14)" stroke-width="1.5"></path>
        <path d="M1285.16 -80.98L1440.65 60.33" stroke="hsla(0, 0%, 100%, 0.14)" stroke-width="1.5"></path>
        <path d="M1285.16 -80.98L1127.02 102.48" stroke="hsla(0, 0%, 100%, 0.14)" stroke-width="1.5"></path>
        <path d="M1285.16 -80.98L1554.04 -51.6" stroke="hsla(0, 0%, 100%, 0.14)" stroke-width="1.5"></path>
        <path d="M1285.16 -80.98L1409.17 189.72" stroke="hsla(0, 0%, 100%, 0.14)" stroke-width="1.5"></path>
        <path d="M1283.89 52.18L1283.89 52.18" stroke="hsla(0, 0%, 100%, 0.14)" stroke-width="1.5"></path>
        <path d="M1283.89 52.18L1440.65 60.33" stroke="hsla(0, 0%, 100%, 0.14)" stroke-width="1.5"></path>
        <path d="M1306.7 260.62L1306.7 260.62" stroke="hsla(0, 0%, 100%, 0.14)" stroke-width="1.5"></path>
        <path d="M1306.7 260.62L1265.31 367.47" stroke="hsla(0, 0%, 100%, 0.14)" stroke-width="1.5"></path>
        <path d="M1265.31 367.47L1265.31 367.47" stroke="hsla(0, 0%, 100%, 0.14)" stroke-width="1.5"></path>
        <path d="M1248.92 550L1248.92 550" stroke="hsla(0, 0%, 100%, 0.14)" stroke-width="1.5"></path>
        <path d="M1248.92 550L1267.13 682.85" stroke="hsla(0, 0%, 100%, 0.14)" stroke-width="1.5"></path>
        <path d="M1267.13 682.85L1267.13 682.85" stroke="hsla(0, 0%, 100%, 0.14)" stroke-width="1.5"></path>
        <path d="M1442.98 -70.44L1442.98 -70.44" stroke="hsla(0, 0%, 100%, 0.14)" stroke-width="1.5"></path>
        <path d="M1442.98 -70.44L1554.04 -51.6" stroke="hsla(0, 0%, 100%, 0.14)" stroke-width="1.5"></path>
        <path d="M1442.98 -70.44L1440.65 60.33" stroke="hsla(0, 0%, 100%, 0.14)" stroke-width="1.5"></path>
        <path d="M1440.65 60.33L1440.65 60.33" stroke="hsla(0, 0%, 100%, 0.14)" stroke-width="1.5"></path>
        <path d="M1416.09 664.89L1416.09 664.89" stroke="hsla(0, 0%, 100%, 0.14)" stroke-width="1.5"></path>
        <path d="M1416.09 664.89L1267.13 682.85" stroke="hsla(0, 0%, 100%, 0.14)" stroke-width="1.5"></path>
        <path d="M1416.09 664.89L1248.92 550" stroke="hsla(0, 0%, 100%, 0.14)" stroke-width="1.5"></path>
        <path d="M1554.04 -51.6L1554.04 -51.6" stroke="hsla(0, 0%, 100%, 0.14)" stroke-width="1.5"></path>
        <path d="M1554.04 -51.6L1601.43 85.49" stroke="hsla(0, 0%, 100%, 0.14)" stroke-width="1.5"></path>
        <path d="M1554.04 -51.6L1440.65 60.33" stroke="hsla(0, 0%, 100%, 0.14)" stroke-width="1.5"></path>
        <path d="M1554.04 -51.6L1409.17 189.72" stroke="hsla(0, 0%, 100%, 0.14)" stroke-width="1.5"></path>
        <path d="M1554.04 -51.6L1283.89 52.18" stroke="hsla(0, 0%, 100%, 0.14)" stroke-width="1.5"></path>
        <path d="M1601.43 85.49L1601.43 85.49" stroke="hsla(0, 0%, 100%, 0.14)" stroke-width="1.5"></path>
        <path d="M1601.43 85.49L1611.24 239.22" stroke="hsla(0, 0%, 100%, 0.14)" stroke-width="1.5"></path>
        <path d="M1601.43 85.49L1440.65 60.33" stroke="hsla(0, 0%, 100%, 0.14)" stroke-width="1.5"></path>
        <path d="M1601.43 85.49L1409.17 189.72" stroke="hsla(0, 0%, 100%, 0.14)" stroke-width="1.5"></path>
        <path d="M1601.43 85.49L1442.98 -70.44" stroke="hsla(0, 0%, 100%, 0.14)" stroke-width="1.5"></path>
        <path d="M1611.24 239.22L1611.24 239.22" stroke="hsla(0, 0%, 100%, 0.14)" stroke-width="1.5"></path>
        <path d="M1611.24 239.22L1607.82 348.52" stroke="hsla(0, 0%, 100%, 0.14)" stroke-width="1.5"></path>
        <path d="M1611.24 239.22L1409.17 189.72" stroke="hsla(0, 0%, 100%, 0.14)" stroke-width="1.5"></path>
        <path d="M1611.24 239.22L1390.69 349.33" stroke="hsla(0, 0%, 100%, 0.14)" stroke-width="1.5"></path>
        <path d="M1611.24 239.22L1440.65 60.33" stroke="hsla(0, 0%, 100%, 0.14)" stroke-width="1.5"></path>
        <path d="M1607.82 348.52L1607.82 348.52" stroke="hsla(0, 0%, 100%, 0.14)" stroke-width="1.5"></path>
        <path d="M1607.82 348.52L1562.46 501.53" stroke="hsla(0, 0%, 100%, 0.14)" stroke-width="1.5"></path>
        <path d="M1607.82 348.52L1390.69 349.33" stroke="hsla(0, 0%, 100%, 0.14)" stroke-width="1.5"></path>
        <path d="M1607.82 348.52L1409.17 189.72" stroke="hsla(0, 0%, 100%, 0.14)" stroke-width="1.5"></path>
        <path d="M1607.82 348.52L1406.36 514.34" stroke="hsla(0, 0%, 100%, 0.14)" stroke-width="1.5"></path>
        <path d="M1607.82 348.52L1601.43 85.49" stroke="hsla(0, 0%, 100%, 0.14)" stroke-width="1.5"></path>
        <path d="M1562.46 501.53L1562.46 501.53" stroke="hsla(0, 0%, 100%, 0.14)" stroke-width="1.5"></path>
        <path d="M1562.46 501.53L1416.09 664.89" stroke="hsla(0, 0%, 100%, 0.14)" stroke-width="1.5"></path>
        <circle r="25" cx="112.31" cy="532.51" fill="url(#SvgjsRadialGradient1592)"></circle>
        <circle r="25" cx="1145.18" cy="491.12" fill="url(#SvgjsRadialGradient1592)"></circle>
        <circle r="25" cx="1156.03" cy="637.6" fill="url(#SvgjsRadialGradient1592)"></circle>
        <circle r="25" cx="1409.17" cy="189.72" fill="url(#SvgjsRadialGradient1592)"></circle>
        <circle r="25" cx="1390.69" cy="349.33" fill="url(#SvgjsRadialGradient1592)"></circle>
        <circle r="25" cx="1406.36" cy="514.34" fill="url(#SvgjsRadialGradient1592)"></circle>
        <circle r="25" cx="1560.54" cy="662.19" fill="url(#SvgjsRadialGradient1592)"></circle>
        <circle r="5" cx="-90.35" cy="524.72" fill="rgba(255, 255, 255, 0.5700000000000001)"></circle>
        <circle r="5" cx="-51.63" cy="657.5" fill="rgba(255, 255, 255, 0.5700000000000001)"></circle>
        <circle r="5" cx="40.16" cy="696.13" fill="rgba(255, 255, 255, 0.5700000000000001)"></circle>
        <circle r="5" cx="249.83" cy="551.3" fill="rgba(255, 255, 255, 0.5700000000000001)"></circle>
        <circle r="5" cx="225.56" cy="668.88" fill="rgba(255, 255, 255, 0.5700000000000001)"></circle>
        <circle r="5" cx="374.77" cy="550.25" fill="rgba(255, 255, 255, 0.5700000000000001)"></circle>
        <circle r="5" cx="358.12" cy="654.03" fill="rgba(255, 255, 255, 0.5700000000000001)"></circle>
        <circle r="5" cx="533.27" cy="510.72" fill="rgba(255, 255, 255, 0.5700000000000001)"></circle>
        <circle r="5" cx="560.45" cy="702.84" fill="rgba(255, 255, 255, 0.5700000000000001)"></circle>
        <circle r="5" cx="684.31" cy="363.91" fill="rgba(255, 255, 255, 0.5700000000000001)"></circle>
        <circle r="5" cx="708.82" cy="523.87" fill="rgba(255, 255, 255, 0.5700000000000001)"></circle>
        <circle r="5" cx="800.38" cy="357.4" fill="rgba(255, 255, 255, 0.5700000000000001)"></circle>
        <circle r="5" cx="791.39" cy="530.06" fill="rgba(255, 255, 255, 0.5700000000000001)"></circle>
        <circle r="5" cx="820.71" cy="683" fill="rgba(255, 255, 255, 0.5700000000000001)"></circle>
        <circle r="5" cx="992.21" cy="362.84" fill="rgba(255, 255, 255, 0.5700000000000001)"></circle>
        <circle r="5" cx="1004.87" cy="558.97" fill="rgba(255, 255, 255, 0.5700000000000001)"></circle>
        <circle r="5" cx="953.31" cy="664.07" fill="rgba(255, 255, 255, 0.5700000000000001)"></circle>
        <circle r="5" cx="1127.02" cy="102.48" fill="rgba(255, 255, 255, 0.5700000000000001)"></circle>
        <circle r="5" cx="1104.93" cy="250.39" fill="rgba(255, 255, 255, 0.5700000000000001)"></circle>
        <circle r="5" cx="1140.6" cy="405.71" fill="rgba(255, 255, 255, 0.5700000000000001)"></circle>
        <circle r="5" cx="1285.16" cy="-80.98" fill="rgba(255, 255, 255, 0.5700000000000001)"></circle>
        <circle r="5" cx="1283.89" cy="52.18" fill="rgba(255, 255, 255, 0.5700000000000001)"></circle>
        <circle r="5" cx="1306.7" cy="260.62" fill="rgba(255, 255, 255, 0.5700000000000001)"></circle>
        <circle r="5" cx="1265.31" cy="367.47" fill="rgba(255, 255, 255, 0.5700000000000001)"></circle>
        <circle r="5" cx="1248.92" cy="550" fill="rgba(255, 255, 255, 0.5700000000000001)"></circle>
        <circle r="5" cx="1267.13" cy="682.85" fill="rgba(255, 255, 255, 0.5700000000000001)"></circle>
        <circle r="5" cx="1442.98" cy="-70.44" fill="rgba(255, 255, 255, 0.5700000000000001)"></circle>
        <circle r="5" cx="1440.65" cy="60.33" fill="rgba(255, 255, 255, 0.5700000000000001)"></circle>
        <circle r="5" cx="1416.09" cy="664.89" fill="rgba(255, 255, 255, 0.5700000000000001)"></circle>
        <circle r="5" cx="1554.04" cy="-51.6" fill="rgba(255, 255, 255, 0.5700000000000001)"></circle>
        <circle r="5" cx="1601.43" cy="85.49" fill="rgba(255, 255, 255, 0.5700000000000001)"></circle>
        <circle r="5" cx="1611.24" cy="239.22" fill="rgba(255, 255, 255, 0.5700000000000001)"></circle>
        <circle r="5" cx="1607.82" cy="348.52" fill="rgba(255, 255, 255, 0.5700000000000001)"></circle>
        <circle r="5" cx="1562.46" cy="501.53" fill="rgba(255, 255, 255, 0.5700000000000001)"></circle>
    </g>
    <defs>
        <mask id="SvgjsMask1591">
            <rect width="1440" height="560" fill="#ffffff"></rect>
        </mask>
        <radialGradient id="SvgjsRadialGradient1592">
            <stop stop-color="#ffffff" offset="0.1"></stop>
            <stop stop-color="rgba(255, 255, 255, 0.14)" offset="0.2"></stop>
            <stop stop-color="rgba(255, 255, 255, 0)" offset="1"></stop>
        </radialGradient>
    </defs>
</svg>